<?xml version="1.0" standalone="no"?>
<!DOCTYPE svg PUBLIC "-//W3C//DTD SVG 20010904//EN"
 "http://www.w3.org/TR/2001/REC-SVG-20010904/DTD/svg10.dtd">
<svg version="1.0" xmlns="http://www.w3.org/2000/svg"
 width="512.000000pt" height="512.000000pt" viewBox="0 0 512.000000 512.000000"
 preserveAspectRatio="xMidYMid meet">
<metadata>
Created by potrace 1.11, written by Peter Selinger 2001-2013
</metadata>
<g transform="translate(0.000000,512.000000) scale(0.100000,-0.100000)"
fill="#000000" stroke="none">
<path d="M1945 4945 c-33 -14 -78 -37 -100 -53 -37 -26 -40 -32 -43 -81 -4
-70 30 -187 120 -415 76 -193 104 -235 184 -282 57 -33 101 -34 127 -3 30 37
19 150 -23 254 -42 100 -45 198 -12 318 12 42 22 92 22 110 0 78 -105 177
-187 177 -15 0 -55 -12 -88 -25z"/>
<path d="M2895 4758 c-84 -46 -107 -100 -116 -280 -4 -81 -15 -220 -25 -308
-14 -132 -15 -174 -5 -231 24 -148 110 -252 191 -234 38 8 72 48 114 132 59
118 66 165 66 455 0 222 -2 264 -19 316 -19 63 -50 115 -85 144 -24 20 -90 23
-121 6z"/>
<path d="M1162 4363 c-44 -22 -62 -60 -62 -134 0 -83 23 -165 74 -268 60 -119
128 -294 175 -449 21 -72 54 -158 72 -192 40 -76 114 -156 152 -166 40 -9 101
11 136 47 26 25 31 38 31 77 0 54 -32 125 -84 189 -50 61 -69 123 -126 395
-32 155 -60 262 -76 296 -48 98 -183 223 -241 222 -10 0 -33 -8 -51 -17z"/>
<path d="M2194 3902 c-84 -29 -104 -47 -104 -91 0 -28 9 -49 33 -80 39 -49
122 -120 156 -133 54 -20 121 25 136 91 12 55 -66 185 -129 215 -40 19 -30 19
-92 -2z"/>
<path d="M537 3572 c-40 -42 -45 -71 -37 -243 6 -124 11 -164 28 -200 20 -43
128 -169 344 -401 l109 -117 -42 -21 c-23 -12 -63 -42 -89 -66 l-47 -44 -13
44 c-20 73 -35 80 -164 84 -61 2 -116 -1 -123 -5 -9 -6 -12 -140 -13 -523 -1
-283 1 -523 5 -533 16 -40 59 -49 191 -42 76 5 127 12 134 19 6 8 11 142 12
347 l3 334 25 45 c33 59 81 90 137 90 60 0 99 -22 125 -73 23 -41 23 -48 23
-380 l0 -339 29 -25 c29 -25 31 -25 160 -18 103 5 134 10 144 23 9 12 12 91
13 311 l0 296 20 -70 c26 -90 78 -198 123 -255 20 -25 36 -51 36 -58 0 -7 22
-79 49 -160 113 -342 255 -561 416 -637 32 -14 88 -30 132 -35 43 -6 132 -27
198 -47 113 -35 128 -37 255 -38 165 0 211 13 296 86 141 122 289 198 433 223
57 9 94 22 122 42 53 37 208 199 244 256 l29 46 100 -1 c120 -1 191 17 266 68
29 19 55 35 59 35 4 0 12 -17 17 -37 l9 -38 144 -3 c154 -3 178 3 166 42 -4
12 -10 181 -14 376 l-7 355 -30 87 -30 88 66 39 c77 46 163 133 190 193 38 84
17 185 -51 243 -19 15 -63 42 -99 59 -61 29 -72 31 -180 31 -110 0 -118 -1
-183 -33 -101 -50 -191 -144 -255 -268 l-50 -99 -94 -24 c-160 -41 -178 -56
-163 -144 14 -85 38 -142 62 -145 l23 -3 -20 -37 c-54 -102 -121 -129 -256
-103 l-41 8 -6 -111 c-15 -303 -144 -489 -382 -551 -228 -59 -458 -5 -593 139
-101 109 -145 231 -145 406 -1 181 48 305 157 408 148 137 351 186 576 138 41
-9 76 -16 78 -16 1 0 -1 18 -4 39 -5 34 1 55 40 139 108 231 97 435 -30 552
-23 21 -73 54 -111 73 -166 84 -282 89 -363 14 -77 -70 -108 -73 -176 -17 -62
51 -111 66 -173 50 -87 -21 -212 -122 -266 -214 -13 -22 -55 -117 -93 -209
-67 -160 -137 -291 -185 -348 -16 -17 -44 -30 -92 -42 -100 -25 -172 -63 -232
-123 -44 -44 -53 -49 -58 -34 -3 10 -27 38 -53 63 -83 79 -103 101 -138 152
-150 219 -170 257 -261 490 -72 185 -105 245 -167 303 -63 60 -168 122 -205
122 -17 0 -37 -11 -54 -28z m3721 -1602 c9 -113 -42 -206 -123 -229 -113 -31
-178 13 -177 119 2 100 92 161 232 157 l65 -2 3 -45z"/>
<path d="M1678 3061 c-47 -10 -68 -27 -68 -58 0 -37 16 -60 51 -72 74 -26 124
2 131 71 3 24 3 49 0 56 -4 13 -53 14 -114 3z"/>
<path d="M2823 2360 c-103 -63 -160 -262 -119 -415 20 -76 62 -151 98 -177 25
-17 49 -24 103 -26 65 -3 73 -1 111 26 27 20 52 51 70 89 26 53 29 69 32 183
3 109 1 132 -18 183 -26 68 -71 124 -117 143 -48 20 -122 17 -160 -6z"/>
<path d="M985 1140 c-16 -26 280 -332 457 -473 53 -42 99 -81 102 -86 13 -21
157 -121 241 -169 121 -68 369 -174 389 -166 17 7 32 47 22 62 -3 5 -23 13
-43 17 -54 10 -243 88 -339 140 -184 100 -258 159 -535 423 -149 141 -275 258
-279 260 -5 2 -11 -2 -15 -8z"/>
<path d="M1485 1040 c-15 -24 15 -51 174 -159 169 -113 203 -127 209 -85 2 16
-31 43 -172 137 -169 114 -198 128 -211 107z"/>
<path d="M1373 933 c-7 -2 -13 -12 -13 -22 0 -19 128 -149 150 -151 33 -5 40
1 40 30 0 17 3 30 7 30 13 0 71 -44 82 -63 17 -26 6 -34 -17 -14 -24 22 -39
21 -52 -3 -12 -23 -8 -27 126 -141 83 -70 110 -82 121 -53 4 12 -15 36 -67 85
-40 38 -71 71 -68 74 2 3 49 -21 104 -52 303 -174 662 -277 945 -271 l124 3
-28 19 c-19 13 -58 22 -125 28 -390 37 -789 196 -1100 440 -80 63 -120 56 -72
-12 37 -52 2 -42 -70 19 -39 34 -72 61 -73 60 -1 0 -8 -3 -14 -6z"/>
<path d="M1914 745 c-12 -30 6 -42 138 -98 270 -114 460 -164 657 -174 150 -7
161 -14 161 -96 l0 -53 -77 -2 c-129 -4 -151 -12 -167 -64 -4 -14 -16 -18 -48
-18 -24 0 -50 5 -58 10 -11 7 -6 10 21 10 41 0 59 24 36 48 -13 12 -227 62
-282 66 -27 1 -33 -39 -8 -52 10 -5 51 -17 92 -26 41 -9 86 -24 100 -32 25
-14 24 -15 -24 -8 -87 13 -126 10 -142 -11 -36 -50 -5 -68 172 -102 120 -22
437 -23 587 0 271 41 494 124 596 220 45 43 40 51 -15 23 -107 -53 -301 -104
-478 -125 -114 -14 -486 -33 -493 -26 -13 12 14 17 136 22 72 3 136 9 143 13
14 9 -12 139 -40 205 -28 65 -35 67 -188 70 -209 3 -432 59 -686 170 -111 49
-125 52 -133 30z"/>
<path d="M1853 533 c-7 -3 -13 -15 -13 -28 0 -20 14 -28 123 -68 173 -63 164
-61 176 -39 13 25 4 33 -69 62 -127 51 -206 77 -217 73z"/>
</g>
</svg>
