{
	"asset":{
		"version":"2.0",
		"generator":"Created using the official Cinema 4D glTF Exporter 1.000x284978"
	},
	"scenes":[{
		"nodes":[0]
	}],
	"nodes":[{
		"name":"Lawson Pot",
		"translation":[0.0,
		85.76326751708985,
		0.0],
		"rotation":[0.0,
		0.0,
		0.0,
		-1.0],
		"scale":[1.0,
		1.0,
		1.0],
		"mesh":0
	}],
	"images":[{
		"uri":"data:image/jpeg;base64,"
	}],
	"meshes":[{
		"name":"Lawson Pot",
		"primitives":[{
			"attributes":{
				"POSITION":1,
				"NORMAL":2,
				"TEXCOORD_0":3
			},
			"indices":0,
			"material":0
		}]
	}],
	"accessors":[{
		"bufferView":0,
		"type":"SCALAR",
		"componentType":5123,
		"count":118356,
		"byteOffset":0,
		"min":[0],
		"max":[44665]
	},
	{
		"bufferView":1,
		"type":"VEC3",
		"componentType":5126,
		"count":44666,
		"byteOffset":0,
		"min":[-77.55689239501953,
		-79.62490844726563,
		-39.921504974365237],
		"max":[67.21566772460938,
		63.99649429321289,
		17.3321475982666]
	},
	{
		"bufferView":1,
		"type":"VEC3",
		"componentType":5126,
		"count":44666,
		"byteOffset":12,
		"min":[-0.9999195337295532,
		-0.9991992712020874,
		-1.0],
		"max":[0.9999641180038452,
		0.9999427199363709,
		1.0]
	},
	{
		"bufferView":1,
		"type":"VEC2",
		"componentType":5126,
		"count":44666,
		"byteOffset":24,
		"min":[0.015468999743461609,
		0.015549000352621079],
		"max":[0.9651390314102173,
		0.9884991645812988]
	}],
	"bufferViews":[{
		"buffer":0,
		"byteOffset":0,
		"byteLength":236712,
		"target":34963
	},
	{
		"buffer":0,
		"byteOffset":236712,
		"byteLength":1429312,
		"target":34962,
		"byteStride":32
	}],
	"materials":[{
		"pbrMetallicRoughness":{
			"baseColorTexture":{
				"index":0
			},
			"baseColorFactor":[1.0,
			1.0,
			1.0,
			1.0],
			"metallicFactor":1.0,
			"roughnessFactor":0.0
		},
		"emissiveFactor":[0.0,
		0.0,
		0.0],
		"alphaMode":"OPAQUE",
		"doubleSided":false,
		"name":"material_0"
	}],
	"buffers":[{
		"uri":"data:application/octet-stream;base64,",
		"byteLength":1666024
	}],
	"samplers":[{
		"magFilter":9729,
		"minFilter":9729,
		"wrapS":10497,
		"wrapT":10497
	}],
	"textures":[{
		"sampler":0,
		"source":0
	}]
}