<svg id="Layer_1" data-name="Layer 1" xmlns="http://www.w3.org/2000/svg" viewBox="0 0 32 32"><path d="M.24,16.86V15.31c0-.12.06-.24.08-.37.11-.73.17-1.48.33-2.2A15.31,15.31,0,0,1,7.11,3.13,15.46,15.46,0,0,1,19,.61,15,15,0,0,1,26,3.93a15.51,15.51,0,0,1,5.7,10.81,15.07,15.07,0,0,1-.65,6.11,15.72,15.72,0,0,1-4.87,7.31,15.35,15.35,0,0,1-8.48,3.63,15.36,15.36,0,0,1-7.47-1,15.66,15.66,0,0,1-8.19-7.33A14.71,14.71,0,0,1,.47,18.6C.38,18,.31,17.44.24,16.86Zm2.88-.74A12.92,12.92,0,1,0,15.91,3.2,12.93,12.93,0,0,0,3.12,16.12Z"/><path d="M6.94,16.11c0-1.1,0-2.21,0-3.31A3.09,3.09,0,0,1,8.61,9.91l5.9-3.4a2.9,2.9,0,0,1,3,0c2,1.14,4,2.3,6,3.46a3,3,0,0,1,1.58,2.77q0,3.39,0,6.8a3,3,0,0,1-1.63,2.79c-1.89,1.09-3.78,2.16-5.66,3.27a3.24,3.24,0,0,1-3.57,0q-2.82-1.66-5.66-3.28a3.09,3.09,0,0,1-1.66-2.86C7,18.35,6.94,17.23,6.94,16.11Zm2.9-2c0,.11,0,.17,0,.22,0,1.7,0,3.41,0,5.11a.5.5,0,0,0,.31.47l4.05,2.33c.12.07.25.12.4.19,0-.11,0-.16,0-.22V17.12a.45.45,0,0,0-.26-.44c-.81-.45-1.61-.93-2.42-1.39Zm12.38.08a.49.49,0,0,0-.15,0l-4.4,2.53c-.21.12-.2.28-.2.47v5.24l.39-.19c1.34-.77,2.68-1.56,4-2.32a.63.63,0,0,0,.38-.64c0-1.58,0-3.16,0-4.74C22.25,14.43,22.23,14.3,22.22,14.17ZM11.41,11.63a1.46,1.46,0,0,0,.2.15l4.2,2.44a.45.45,0,0,0,.51,0c.88-.52,1.76-1,2.65-1.53l1.73-1-.23-.15c-1.35-.78-2.71-1.56-4-2.35a.68.68,0,0,0-.79,0c-.69.42-1.39.81-2.08,1.21Z"/></svg>